<svg width="20" height="20" viewBox="0 0 20 20" fill="none" xmlns="http://www.w3.org/2000/svg">
<g id="fi-sr-download" clip-path="url(#clip0_9787_105208)">
<g id="Group">
<path id="Vector" d="M8.23267 15.1017C9.20868 16.0783 10.7916 16.0788 11.7682 15.1028C11.7686 15.1024 11.769 15.1021 11.7693 15.1017L14.4452 12.4259C14.7538 12.0845 14.7273 11.5575 14.3859 11.2488C14.0681 10.9614 13.5841 10.962 13.2668 11.25L10.8285 13.6892L10.8343 0.833359C10.8343 0.373086 10.4612 0 10.001 0C9.54075 0 9.16767 0.373086 9.16767 0.83332L9.16017 13.6733L6.73517 11.25C6.40954 10.9246 5.88181 10.9248 5.55642 11.2504C5.23103 11.5761 5.23122 12.1038 5.55685 12.4292L8.23267 15.1017Z" fill="#242627"/>
<path id="Vector_2" d="M19.1667 13.3335C18.7064 13.3335 18.3334 13.7066 18.3334 14.1668V17.5002C18.3334 17.9604 17.9603 18.3335 17.5 18.3335H2.5C2.03977 18.3335 1.66668 17.9604 1.66668 17.5002V14.1669C1.66668 13.7066 1.29359 13.3335 0.833359 13.3335C0.373086 13.3335 0 13.7066 0 14.1669V17.5002C0 18.8809 1.1193 20.0002 2.5 20.0002H17.5C18.8807 20.0002 20 18.8809 20 17.5002V14.1669C20 13.7066 19.6269 13.3335 19.1667 13.3335Z" fill="#242627"/>
</g>
</g>
<defs>
<clipPath id="clip0_9787_105208">
<rect width="20" height="20" fill="white"/>
</clipPath>
</defs>
</svg>
