<svg width="24" height="25" viewBox="0 0 24 25" fill="none" xmlns="http://www.w3.org/2000/svg">
<g id="File Type" clip-path="url(#clip0_9787_105206)">
<path id="Vector" d="M21.8258 1.7V20.075H2.17578V5.675L7.35078 0.5H20.6633C21.3008 0.5 21.8258 1.0625 21.8258 1.7Z" fill="#EFF2F3"/>
<path id="Vector_2" d="M6.26289 5.675H2.21289L7.35039 0.5L7.31289 4.55C7.35039 5.1875 6.86289 5.675 6.26289 5.675Z" fill="#DADEDE"/>
<path id="Vector_3" d="M13.9117 11.0001C12.8242 9.95012 12.0367 8.75012 12.0367 8.75012C12.3367 8.30012 13.0492 5.71262 11.9617 4.96262C10.8742 4.21262 10.3117 5.60012 10.3117 5.60012C9.82422 7.32512 10.9867 8.90012 10.9867 8.90012L9.67422 11.7876C9.52422 11.7876 5.36172 13.4001 6.78672 15.3876C8.24922 17.3751 10.2742 12.5751 10.2742 12.5751C11.0617 12.3126 13.4617 11.9751 13.4617 11.9751C14.3992 13.2501 15.5242 13.6626 15.5242 13.6626C17.2492 14.1126 17.4367 12.6876 17.4367 12.6876C17.4742 10.8126 13.9117 11.0001 13.9117 11.0001ZM7.49922 14.7126C7.46172 14.7126 7.46172 14.6751 7.46172 14.6751C7.23672 14.1501 8.96172 13.1376 8.96172 13.1376C8.96172 13.1376 8.02422 14.9376 7.49922 14.7126ZM11.3992 5.63762C11.8867 6.08762 11.4742 7.62512 11.4742 7.62512C11.4742 7.62512 10.9117 6.08762 11.3992 5.63762ZM10.9492 11.4501L11.6242 9.80012L12.6742 11.0751L10.9492 11.4501ZM16.4992 12.6501C16.1992 13.1376 14.9617 12.0876 14.8492 11.9751C15.0367 11.9751 16.6492 12.0876 16.4992 12.6501ZM21.8242 18.8751V23.3001C21.8242 23.9376 21.2992 24.5001 20.6242 24.5001H3.33672C2.69922 24.5001 2.13672 23.9751 2.13672 23.3001V18.8751H21.8242Z" fill="#ED4E3A"/>
<path id="Vector_4" d="M10.4617 20.8249C10.4617 21.1249 10.3492 21.3499 10.1617 21.5374C9.97422 21.6874 9.67422 21.7624 9.29922 21.7624H8.99922V22.8499H8.51172V19.9624H9.37422C9.74922 19.9624 10.0117 20.0374 10.1992 20.1874C10.3867 20.3374 10.4617 20.5249 10.4617 20.8249ZM9.03672 21.3874H9.29922C9.52422 21.3874 9.71172 21.3499 9.82422 21.2749C9.93672 21.1999 10.0117 21.0499 10.0117 20.8624C10.0117 20.7124 9.97422 20.5624 9.86172 20.4874C9.74922 20.4124 9.59922 20.3749 9.37422 20.3749H9.03672V21.3874ZM13.4242 21.3874C13.4242 21.8749 13.2742 22.2499 13.0117 22.4749C12.7492 22.7374 12.3742 22.8499 11.8492 22.8499H11.0242V19.9624H11.9242C12.3742 19.9624 12.7492 20.0749 13.0117 20.3374C13.2742 20.5624 13.4242 20.9374 13.4242 21.3874ZM12.8992 21.3874C12.8992 20.6749 12.5617 20.3374 11.9242 20.3374H11.5117V22.4374H11.8492C12.5617 22.4749 12.8992 22.0999 12.8992 21.3874ZM14.5117 22.8499H14.0242V19.9624H15.6742V20.3749H14.5117V21.2749H15.5992V21.6874H14.5117V22.8499Z" fill="#EFF2F3"/>
</g>
<defs>
<clipPath id="clip0_9787_105206">
<rect width="24" height="24" fill="white" transform="translate(0 0.5)"/>
</clipPath>
</defs>
</svg>
