<svg width="32" height="32" viewBox="0 0 32 32" fill="none" xmlns="http://www.w3.org/2000/svg">
<mask id="mask0_9896_75617" style="mask-type:luminance" maskUnits="userSpaceOnUse" x="8" y="6" width="16" height="16">
<path fill-rule="evenodd" clip-rule="evenodd" d="M8.5 6.83301H23.9141V21.2897H8.5V6.83301Z" fill="white"/>
</mask>
<g mask="url(#mask0_9896_75617)">
<path fill-rule="evenodd" clip-rule="evenodd" d="M16.2058 8.08301C13.2933 8.08301 11.2633 10.3647 11.2633 12.4122C11.2633 14.1447 10.7825 14.9455 10.3575 15.6522C10.0167 16.2197 9.74751 16.668 9.74751 17.6422C9.88668 19.2138 10.9242 20.0397 16.2058 20.0397C21.4583 20.0397 22.5283 19.1772 22.6667 17.588C22.6642 16.668 22.395 16.2197 22.0542 15.6522C21.6292 14.9455 21.1483 14.1447 21.1483 12.4122C21.1483 10.3647 19.1183 8.08301 16.2058 8.08301ZM16.2058 21.2897C12.3092 21.2897 8.78751 21.0147 8.50001 17.6955C8.49751 16.3222 8.91668 15.6238 9.28668 15.0088C9.66084 14.3855 10.0133 13.798 10.0133 12.4122C10.0133 9.71801 12.5017 6.83301 16.2058 6.83301C19.91 6.83301 22.3983 9.71801 22.3983 12.4122C22.3983 13.798 22.7508 14.3855 23.125 15.0088C23.495 15.6238 23.9142 16.3222 23.9142 17.6422C23.6233 21.0147 20.1025 21.2897 16.2058 21.2897Z" fill="#727474"/>
</g>
<path fill-rule="evenodd" clip-rule="evenodd" d="M16.1649 24.7495H16.1632C15.229 24.7487 14.3449 24.337 13.674 23.5895C13.4432 23.3337 13.464 22.9379 13.7207 22.7079C13.9774 22.4762 14.3724 22.497 14.6032 22.7545C15.0349 23.2354 15.589 23.4995 16.164 23.4995H16.1649C16.7424 23.4995 17.299 23.2354 17.7315 22.7537C17.9632 22.4979 18.3582 22.477 18.614 22.7079C18.8707 22.9387 18.8915 23.3345 18.6607 23.5904C17.9874 24.3379 17.1015 24.7495 16.1649 24.7495Z" fill="#727474"/>
<circle cx="22" cy="12" r="4" fill="#00A2D4"/>
<rect x="0.5" y="0.5" width="31" height="31" rx="7.5" stroke="#EDF1F7"/>
</svg>
