<svg width="32" height="32" viewBox="0 0 32 32" fill="none" xmlns="http://www.w3.org/2000/svg">
<mask id="mask0_9787_105046" style="mask-type:luminance" maskUnits="userSpaceOnUse" x="7" y="7" width="17" height="18">
<path fill-rule="evenodd" clip-rule="evenodd" d="M7.66699 7.66699H23.7377V24.9345H7.66699V7.66699Z" fill="white"/>
</mask>
<g mask="url(#mask0_9787_105046)">
<path fill-rule="evenodd" clip-rule="evenodd" d="M12.0023 20.5337C12.1931 20.5337 12.3839 20.5578 12.5706 20.6078C13.1339 20.7595 13.6231 21.1362 13.9131 21.642C14.1014 21.9595 14.2056 22.3303 14.2089 22.7087C14.2089 23.2503 14.6439 23.6845 15.1789 23.6845H16.2231C16.7556 23.6845 17.1906 23.2528 17.1931 22.7203C17.1898 22.132 17.4198 21.5728 17.8406 21.152C18.2556 20.737 18.8356 20.4878 19.4156 20.5045C19.7956 20.5137 20.1614 20.6162 20.4839 20.7995C20.9481 21.0653 21.5406 20.907 21.8089 20.4487L22.3623 19.5262C22.4856 19.3137 22.5214 19.047 22.4556 18.8012C22.3906 18.5553 22.2273 18.342 22.0073 18.2162C21.4923 17.9195 21.1248 17.4412 20.9723 16.8678C20.8214 16.3053 20.9039 15.6912 21.1981 15.1853C21.3898 14.852 21.6706 14.5712 22.0073 14.3778C22.4589 14.1137 22.6173 13.5228 22.3548 13.0628C22.3439 13.0445 22.3339 13.0253 22.3256 13.0053L21.8373 12.1587C21.5714 11.6962 20.9798 11.537 20.5156 11.8012C20.0139 12.0978 19.4173 12.1828 18.8439 12.032C18.2714 11.8837 17.7914 11.5212 17.4923 11.0095C17.3006 10.6895 17.1964 10.317 17.1931 9.93783C17.2006 9.65283 17.1006 9.39699 16.9189 9.20949C16.7381 9.02283 16.4839 8.91699 16.2231 8.91699H15.1789C14.9206 8.91699 14.6789 9.01783 14.4964 9.19949C14.3148 9.38199 14.2156 9.62449 14.2173 9.88283C14.1998 11.1012 13.2039 12.082 11.9981 12.082C11.6114 12.0778 11.2389 11.9737 10.9156 11.7803C10.4614 11.522 9.86809 11.6812 9.60226 12.1437L9.03809 13.0712C8.77976 13.5195 8.93809 14.112 9.39809 14.3795C10.0806 14.7745 10.5064 15.5112 10.5064 16.3012C10.5064 17.0912 10.0806 17.827 9.39643 18.2228C8.93893 18.4878 8.78059 19.077 9.04559 19.5353L9.57143 20.442C9.70143 20.6762 9.91393 20.8453 10.1598 20.9145C10.4048 20.9828 10.6748 20.9537 10.8998 20.8287C11.2306 20.6345 11.6156 20.5337 12.0023 20.5337ZM16.2231 24.9345H15.1789C13.9548 24.9345 12.9589 23.9395 12.9589 22.7153C12.9573 22.5645 12.9139 22.4078 12.8331 22.272C12.7023 22.0437 12.4906 21.8803 12.2464 21.8153C12.0039 21.7503 11.7381 21.7862 11.5198 21.9128C10.9964 22.2045 10.3806 22.2753 9.81726 22.117C9.25476 21.9578 8.76893 21.5712 8.48393 21.0587L7.96309 20.1612C7.35393 19.1045 7.71643 17.7503 8.77143 17.1403C9.07059 16.9678 9.25643 16.6462 9.25643 16.3012C9.25643 15.9562 9.07059 15.6337 8.77143 15.4612C7.71559 14.8478 7.35393 13.4903 7.96226 12.4337L8.52726 11.5062C9.12809 10.4612 10.4864 10.0928 11.5456 10.7012C11.6898 10.787 11.8464 10.8303 12.0056 10.832C12.5248 10.832 12.9589 10.4037 12.9673 9.87699C12.9639 9.29616 13.1931 8.73866 13.6106 8.31783C14.0298 7.89783 14.5864 7.66699 15.1789 7.66699H16.2231C16.8198 7.66699 17.3998 7.91199 17.8156 8.33783C18.2306 8.76616 18.4598 9.35366 18.4423 9.94949C18.4439 10.0837 18.4881 10.2387 18.5681 10.3745C18.7006 10.5995 18.9098 10.7578 19.1581 10.8228C19.4064 10.8845 19.6664 10.8512 19.8873 10.7203C20.9539 10.1112 22.3114 10.4762 22.9206 11.5345L23.4398 12.4337C23.4531 12.4578 23.4648 12.4812 23.4748 12.5053C24.0264 13.5478 23.6581 14.8603 22.6331 15.4595C22.4839 15.5453 22.3631 15.6653 22.2798 15.8103C22.1506 16.0345 22.1148 16.3012 22.1798 16.5462C22.2464 16.7962 22.4056 17.0037 22.6298 17.132C23.1356 17.4228 23.5131 17.9128 23.6639 18.4787C23.8148 19.0437 23.7323 19.657 23.4381 20.1628L22.8848 21.0845C22.2756 22.1312 20.9181 22.4937 19.8623 21.8837C19.7214 21.8028 19.5589 21.7587 19.3973 21.7545H19.3923C19.1514 21.7545 18.9039 21.857 18.7239 22.0362C18.5414 22.2187 18.4414 22.462 18.4431 22.7203C18.4373 23.9445 17.4414 24.9345 16.2231 24.9345Z" fill="#727474"/>
</g>
<path fill-rule="evenodd" clip-rule="evenodd" d="M15.7045 14.7285C14.8378 14.7285 14.1328 15.4343 14.1328 16.301C14.1328 17.1677 14.8378 17.8718 15.7045 17.8718C16.5711 17.8718 17.2761 17.1677 17.2761 16.301C17.2761 15.4343 16.5711 14.7285 15.7045 14.7285ZM15.7045 19.1218C14.1486 19.1218 12.8828 17.8568 12.8828 16.301C12.8828 14.7452 14.1486 13.4785 15.7045 13.4785C17.2603 13.4785 18.5261 14.7452 18.5261 16.301C18.5261 17.8568 17.2603 19.1218 15.7045 19.1218Z" fill="#727474"/>
<rect x="0.5" y="0.5" width="31" height="31" rx="7.5" stroke="#EDF1F7"/>
</svg>
